<?xml version="1.0" encoding="utf-8" standalone="no"?>
<!DOCTYPE svg PUBLIC "-//W3C//DTD SVG 1.1//EN"
  "http://www.w3.org/Graphics/SVG/1.1/DTD/svg11.dtd">
<!-- Created with matplotlib (https://matplotlib.org/) -->
<svg height="216pt" version="1.1" viewBox="0 0 550.625 216" width="550.625pt" xmlns="http://www.w3.org/2000/svg" xmlns:xlink="http://www.w3.org/1999/xlink">
 <defs>
  <style type="text/css">
*{stroke-linecap:butt;stroke-linejoin:round;}
  </style>
 </defs>
 <g id="figure_1">
  <g id="patch_1">
   <path d="M 0 216 
L 550.625 216 
L 550.625 0 
L 0 0 
z
" style="fill:#ffffff;"/>
  </g>
  <g id="axes_1">
   <g id="patch_2">
    <path d="M 60.766312 174.2 
L 235.144481 174.2 
L 235.144481 24.8 
L 60.766312 24.8 
z
" style="fill:#ffffff;"/>
   </g>
   <g id="matplotlib.axis_1">
    <g id="xtick_1">
     <g id="line2d_1">
      <defs>
       <path d="M 0 0 
L 0 3.5 
" id="me0ef26de15" style="stroke:#000000;stroke-width:0.8;"/>
      </defs>
      <g>
       <use style="stroke:#000000;stroke-width:0.8;" x="66.711023" xlink:href="#me0ef26de15" y="174.2"/>
      </g>
     </g>
     <g id="text_1">
      <!-- 0 -->
      <defs>
       <path d="M 31.78125 66.40625 
Q 24.171875 66.40625 20.328125 58.90625 
Q 16.5 51.421875 16.5 36.375 
Q 16.5 21.390625 20.328125 13.890625 
Q 24.171875 6.390625 31.78125 6.390625 
Q 39.453125 6.390625 43.28125 13.890625 
Q 47.125 21.390625 47.125 36.375 
Q 47.125 51.421875 43.28125 58.90625 
Q 39.453125 66.40625 31.78125 66.40625 
z
M 31.78125 74.21875 
Q 44.046875 74.21875 50.515625 64.515625 
Q 56.984375 54.828125 56.984375 36.375 
Q 56.984375 17.96875 50.515625 8.265625 
Q 44.046875 -1.421875 31.78125 -1.421875 
Q 19.53125 -1.421875 13.0625 8.265625 
Q 6.59375 17.96875 6.59375 36.375 
Q 6.59375 54.828125 13.0625 64.515625 
Q 19.53125 74.21875 31.78125 74.21875 
z
" id="DejaVuSans-48"/>
      </defs>
      <g transform="translate(63.529773 188.798438)scale(0.1 -0.1)">
       <use xlink:href="#DejaVuSans-48"/>
      </g>
     </g>
    </g>
    <g id="xtick_2">
     <g id="line2d_2">
      <g>
       <use style="stroke:#000000;stroke-width:0.8;" x="106.342425" xlink:href="#me0ef26de15" y="174.2"/>
      </g>
     </g>
     <g id="text_2">
      <!-- 2000 -->
      <defs>
       <path d="M 19.1875 8.296875 
L 53.609375 8.296875 
L 53.609375 0 
L 7.328125 0 
L 7.328125 8.296875 
Q 12.9375 14.109375 22.625 23.890625 
Q 32.328125 33.6875 34.8125 36.53125 
Q 39.546875 41.84375 41.421875 45.53125 
Q 43.3125 49.21875 43.3125 52.78125 
Q 43.3125 58.59375 39.234375 62.25 
Q 35.15625 65.921875 28.609375 65.921875 
Q 23.96875 65.921875 18.8125 64.3125 
Q 13.671875 62.703125 7.8125 59.421875 
L 7.8125 69.390625 
Q 13.765625 71.78125 18.9375 73 
Q 24.125 74.21875 28.421875 74.21875 
Q 39.75 74.21875 46.484375 68.546875 
Q 53.21875 62.890625 53.21875 53.421875 
Q 53.21875 48.921875 51.53125 44.890625 
Q 49.859375 40.875 45.40625 35.40625 
Q 44.1875 33.984375 37.640625 27.21875 
Q 31.109375 20.453125 19.1875 8.296875 
z
" id="DejaVuSans-50"/>
      </defs>
      <g transform="translate(93.617425 188.798438)scale(0.1 -0.1)">
       <use xlink:href="#DejaVuSans-50"/>
       <use x="63.623047" xlink:href="#DejaVuSans-48"/>
       <use x="127.246094" xlink:href="#DejaVuSans-48"/>
       <use x="190.869141" xlink:href="#DejaVuSans-48"/>
      </g>
     </g>
    </g>
    <g id="xtick_3">
     <g id="line2d_3">
      <g>
       <use style="stroke:#000000;stroke-width:0.8;" x="145.973827" xlink:href="#me0ef26de15" y="174.2"/>
      </g>
     </g>
     <g id="text_3">
      <!-- 4000 -->
      <defs>
       <path d="M 37.796875 64.3125 
L 12.890625 25.390625 
L 37.796875 25.390625 
z
M 35.203125 72.90625 
L 47.609375 72.90625 
L 47.609375 25.390625 
L 58.015625 25.390625 
L 58.015625 17.1875 
L 47.609375 17.1875 
L 47.609375 0 
L 37.796875 0 
L 37.796875 17.1875 
L 4.890625 17.1875 
L 4.890625 26.703125 
z
" id="DejaVuSans-52"/>
      </defs>
      <g transform="translate(133.248827 188.798438)scale(0.1 -0.1)">
       <use xlink:href="#DejaVuSans-52"/>
       <use x="63.623047" xlink:href="#DejaVuSans-48"/>
       <use x="127.246094" xlink:href="#DejaVuSans-48"/>
       <use x="190.869141" xlink:href="#DejaVuSans-48"/>
      </g>
     </g>
    </g>
    <g id="xtick_4">
     <g id="line2d_4">
      <g>
       <use style="stroke:#000000;stroke-width:0.8;" x="185.605229" xlink:href="#me0ef26de15" y="174.2"/>
      </g>
     </g>
     <g id="text_4">
      <!-- 6000 -->
      <defs>
       <path d="M 33.015625 40.375 
Q 26.375 40.375 22.484375 35.828125 
Q 18.609375 31.296875 18.609375 23.390625 
Q 18.609375 15.53125 22.484375 10.953125 
Q 26.375 6.390625 33.015625 6.390625 
Q 39.65625 6.390625 43.53125 10.953125 
Q 47.40625 15.53125 47.40625 23.390625 
Q 47.40625 31.296875 43.53125 35.828125 
Q 39.65625 40.375 33.015625 40.375 
z
M 52.59375 71.296875 
L 52.59375 62.3125 
Q 48.875 64.0625 45.09375 64.984375 
Q 41.3125 65.921875 37.59375 65.921875 
Q 27.828125 65.921875 22.671875 59.328125 
Q 17.53125 52.734375 16.796875 39.40625 
Q 19.671875 43.65625 24.015625 45.921875 
Q 28.375 48.1875 33.59375 48.1875 
Q 44.578125 48.1875 50.953125 41.515625 
Q 57.328125 34.859375 57.328125 23.390625 
Q 57.328125 12.15625 50.6875 5.359375 
Q 44.046875 -1.421875 33.015625 -1.421875 
Q 20.359375 -1.421875 13.671875 8.265625 
Q 6.984375 17.96875 6.984375 36.375 
Q 6.984375 53.65625 15.1875 63.9375 
Q 23.390625 74.21875 37.203125 74.21875 
Q 40.921875 74.21875 44.703125 73.484375 
Q 48.484375 72.75 52.59375 71.296875 
z
" id="DejaVuSans-54"/>
      </defs>
      <g transform="translate(172.880229 188.798438)scale(0.1 -0.1)">
       <use xlink:href="#DejaVuSans-54"/>
       <use x="63.623047" xlink:href="#DejaVuSans-48"/>
       <use x="127.246094" xlink:href="#DejaVuSans-48"/>
       <use x="190.869141" xlink:href="#DejaVuSans-48"/>
      </g>
     </g>
    </g>
    <g id="xtick_5">
     <g id="line2d_5">
      <g>
       <use style="stroke:#000000;stroke-width:0.8;" x="225.236631" xlink:href="#me0ef26de15" y="174.2"/>
      </g>
     </g>
     <g id="text_5">
      <!-- 8000 -->
      <defs>
       <path d="M 31.78125 34.625 
Q 24.75 34.625 20.71875 30.859375 
Q 16.703125 27.09375 16.703125 20.515625 
Q 16.703125 13.921875 20.71875 10.15625 
Q 24.75 6.390625 31.78125 6.390625 
Q 38.8125 6.390625 42.859375 10.171875 
Q 46.921875 13.96875 46.921875 20.515625 
Q 46.921875 27.09375 42.890625 30.859375 
Q 38.875 34.625 31.78125 34.625 
z
M 21.921875 38.8125 
Q 15.578125 40.375 12.03125 44.71875 
Q 8.5 49.078125 8.5 55.328125 
Q 8.5 64.0625 14.71875 69.140625 
Q 20.953125 74.21875 31.78125 74.21875 
Q 42.671875 74.21875 48.875 69.140625 
Q 55.078125 64.0625 55.078125 55.328125 
Q 55.078125 49.078125 51.53125 44.71875 
Q 48 40.375 41.703125 38.8125 
Q 48.828125 37.15625 52.796875 32.3125 
Q 56.78125 27.484375 56.78125 20.515625 
Q 56.78125 9.90625 50.3125 4.234375 
Q 43.84375 -1.421875 31.78125 -1.421875 
Q 19.734375 -1.421875 13.25 4.234375 
Q 6.78125 9.90625 6.78125 20.515625 
Q 6.78125 27.484375 10.78125 32.3125 
Q 14.796875 37.15625 21.921875 38.8125 
z
M 18.3125 54.390625 
Q 18.3125 48.734375 21.84375 45.5625 
Q 25.390625 42.390625 31.78125 42.390625 
Q 38.140625 42.390625 41.71875 45.5625 
Q 45.3125 48.734375 45.3125 54.390625 
Q 45.3125 60.0625 41.71875 63.234375 
Q 38.140625 66.40625 31.78125 66.40625 
Q 25.390625 66.40625 21.84375 63.234375 
Q 18.3125 60.0625 18.3125 54.390625 
z
" id="DejaVuSans-56"/>
      </defs>
      <g transform="translate(212.511631 188.798438)scale(0.1 -0.1)">
       <use xlink:href="#DejaVuSans-56"/>
       <use x="63.623047" xlink:href="#DejaVuSans-48"/>
       <use x="127.246094" xlink:href="#DejaVuSans-48"/>
       <use x="190.869141" xlink:href="#DejaVuSans-48"/>
      </g>
     </g>
    </g>
    <g id="text_6">
     <!-- Step -->
     <defs>
      <path d="M 53.515625 70.515625 
L 53.515625 60.890625 
Q 47.90625 63.578125 42.921875 64.890625 
Q 37.9375 66.21875 33.296875 66.21875 
Q 25.25 66.21875 20.875 63.09375 
Q 16.5 59.96875 16.5 54.203125 
Q 16.5 49.359375 19.40625 46.890625 
Q 22.3125 44.4375 30.421875 42.921875 
L 36.375 41.703125 
Q 47.40625 39.59375 52.65625 34.296875 
Q 57.90625 29 57.90625 20.125 
Q 57.90625 9.515625 50.796875 4.046875 
Q 43.703125 -1.421875 29.984375 -1.421875 
Q 24.8125 -1.421875 18.96875 -0.25 
Q 13.140625 0.921875 6.890625 3.21875 
L 6.890625 13.375 
Q 12.890625 10.015625 18.65625 8.296875 
Q 24.421875 6.59375 29.984375 6.59375 
Q 38.421875 6.59375 43.015625 9.90625 
Q 47.609375 13.234375 47.609375 19.390625 
Q 47.609375 24.75 44.3125 27.78125 
Q 41.015625 30.8125 33.5 32.328125 
L 27.484375 33.5 
Q 16.453125 35.6875 11.515625 40.375 
Q 6.59375 45.0625 6.59375 53.421875 
Q 6.59375 63.09375 13.40625 68.65625 
Q 20.21875 74.21875 32.171875 74.21875 
Q 37.3125 74.21875 42.625 73.28125 
Q 47.953125 72.359375 53.515625 70.515625 
z
" id="DejaVuSans-83"/>
      <path d="M 18.3125 70.21875 
L 18.3125 54.6875 
L 36.8125 54.6875 
L 36.8125 47.703125 
L 18.3125 47.703125 
L 18.3125 18.015625 
Q 18.3125 11.328125 20.140625 9.421875 
Q 21.96875 7.515625 27.59375 7.515625 
L 36.8125 7.515625 
L 36.8125 0 
L 27.59375 0 
Q 17.1875 0 13.234375 3.875 
Q 9.28125 7.765625 9.28125 18.015625 
L 9.28125 47.703125 
L 2.6875 47.703125 
L 2.6875 54.6875 
L 9.28125 54.6875 
L 9.28125 70.21875 
z
" id="DejaVuSans-116"/>
      <path d="M 56.203125 29.59375 
L 56.203125 25.203125 
L 14.890625 25.203125 
Q 15.484375 15.921875 20.484375 11.0625 
Q 25.484375 6.203125 34.421875 6.203125 
Q 39.59375 6.203125 44.453125 7.46875 
Q 49.3125 8.734375 54.109375 11.28125 
L 54.109375 2.78125 
Q 49.265625 0.734375 44.1875 -0.34375 
Q 39.109375 -1.421875 33.890625 -1.421875 
Q 20.796875 -1.421875 13.15625 6.1875 
Q 5.515625 13.8125 5.515625 26.8125 
Q 5.515625 40.234375 12.765625 48.109375 
Q 20.015625 56 32.328125 56 
Q 43.359375 56 49.78125 48.890625 
Q 56.203125 41.796875 56.203125 29.59375 
z
M 47.21875 32.234375 
Q 47.125 39.59375 43.09375 43.984375 
Q 39.0625 48.390625 32.421875 48.390625 
Q 24.90625 48.390625 20.390625 44.140625 
Q 15.875 39.890625 15.1875 32.171875 
z
" id="DejaVuSans-101"/>
      <path d="M 18.109375 8.203125 
L 18.109375 -20.796875 
L 9.078125 -20.796875 
L 9.078125 54.6875 
L 18.109375 54.6875 
L 18.109375 46.390625 
Q 20.953125 51.265625 25.265625 53.625 
Q 29.59375 56 35.59375 56 
Q 45.5625 56 51.78125 48.09375 
Q 58.015625 40.1875 58.015625 27.296875 
Q 58.015625 14.40625 51.78125 6.484375 
Q 45.5625 -1.421875 35.59375 -1.421875 
Q 29.59375 -1.421875 25.265625 0.953125 
Q 20.953125 3.328125 18.109375 8.203125 
z
M 48.6875 27.296875 
Q 48.6875 37.203125 44.609375 42.84375 
Q 40.53125 48.484375 33.40625 48.484375 
Q 26.265625 48.484375 22.1875 42.84375 
Q 18.109375 37.203125 18.109375 27.296875 
Q 18.109375 17.390625 22.1875 11.75 
Q 26.265625 6.109375 33.40625 6.109375 
Q 40.53125 6.109375 44.609375 11.75 
Q 48.6875 17.390625 48.6875 27.296875 
z
" id="DejaVuSans-112"/>
     </defs>
     <g transform="translate(136.57024 202.476562)scale(0.1 -0.1)">
      <use xlink:href="#DejaVuSans-83"/>
      <use x="63.476562" xlink:href="#DejaVuSans-116"/>
      <use x="102.685547" xlink:href="#DejaVuSans-101"/>
      <use x="164.208984" xlink:href="#DejaVuSans-112"/>
     </g>
    </g>
   </g>
   <g id="matplotlib.axis_2">
    <g id="ytick_1">
     <g id="line2d_6">
      <defs>
       <path d="M 0 0 
L -3.5 0 
" id="m7dfc24333e" style="stroke:#000000;stroke-width:0.8;"/>
      </defs>
      <g>
       <use style="stroke:#000000;stroke-width:0.8;" x="60.766312" xlink:href="#m7dfc24333e" y="164.495174"/>
      </g>
     </g>
     <g id="text_7">
      <!-- 0.2 -->
      <defs>
       <path d="M 10.6875 12.40625 
L 21 12.40625 
L 21 0 
L 10.6875 0 
z
" id="DejaVuSans-46"/>
      </defs>
      <g transform="translate(37.863187 168.294392)scale(0.1 -0.1)">
       <use xlink:href="#DejaVuSans-48"/>
       <use x="63.623047" xlink:href="#DejaVuSans-46"/>
       <use x="95.410156" xlink:href="#DejaVuSans-50"/>
      </g>
     </g>
    </g>
    <g id="ytick_2">
     <g id="line2d_7">
      <g>
       <use style="stroke:#000000;stroke-width:0.8;" x="60.766312" xlink:href="#m7dfc24333e" y="139.800959"/>
      </g>
     </g>
     <g id="text_8">
      <!-- 0.3 -->
      <defs>
       <path d="M 40.578125 39.3125 
Q 47.65625 37.796875 51.625 33 
Q 55.609375 28.21875 55.609375 21.1875 
Q 55.609375 10.40625 48.1875 4.484375 
Q 40.765625 -1.421875 27.09375 -1.421875 
Q 22.515625 -1.421875 17.65625 -0.515625 
Q 12.796875 0.390625 7.625 2.203125 
L 7.625 11.71875 
Q 11.71875 9.328125 16.59375 8.109375 
Q 21.484375 6.890625 26.8125 6.890625 
Q 36.078125 6.890625 40.9375 10.546875 
Q 45.796875 14.203125 45.796875 21.1875 
Q 45.796875 27.640625 41.28125 31.265625 
Q 36.765625 34.90625 28.71875 34.90625 
L 20.21875 34.90625 
L 20.21875 43.015625 
L 29.109375 43.015625 
Q 36.375 43.015625 40.234375 45.921875 
Q 44.09375 48.828125 44.09375 54.296875 
Q 44.09375 59.90625 40.109375 62.90625 
Q 36.140625 65.921875 28.71875 65.921875 
Q 24.65625 65.921875 20.015625 65.03125 
Q 15.375 64.15625 9.8125 62.3125 
L 9.8125 71.09375 
Q 15.4375 72.65625 20.34375 73.4375 
Q 25.25 74.21875 29.59375 74.21875 
Q 40.828125 74.21875 47.359375 69.109375 
Q 53.90625 64.015625 53.90625 55.328125 
Q 53.90625 49.265625 50.4375 45.09375 
Q 46.96875 40.921875 40.578125 39.3125 
z
" id="DejaVuSans-51"/>
      </defs>
      <g transform="translate(37.863187 143.600177)scale(0.1 -0.1)">
       <use xlink:href="#DejaVuSans-48"/>
       <use x="63.623047" xlink:href="#DejaVuSans-46"/>
       <use x="95.410156" xlink:href="#DejaVuSans-51"/>
      </g>
     </g>
    </g>
    <g id="ytick_3">
     <g id="line2d_8">
      <g>
       <use style="stroke:#000000;stroke-width:0.8;" x="60.766312" xlink:href="#m7dfc24333e" y="115.106744"/>
      </g>
     </g>
     <g id="text_9">
      <!-- 0.4 -->
      <g transform="translate(37.863187 118.905963)scale(0.1 -0.1)">
       <use xlink:href="#DejaVuSans-48"/>
       <use x="63.623047" xlink:href="#DejaVuSans-46"/>
       <use x="95.410156" xlink:href="#DejaVuSans-52"/>
      </g>
     </g>
    </g>
    <g id="ytick_4">
     <g id="line2d_9">
      <g>
       <use style="stroke:#000000;stroke-width:0.8;" x="60.766312" xlink:href="#m7dfc24333e" y="90.412529"/>
      </g>
     </g>
     <g id="text_10">
      <!-- 0.5 -->
      <defs>
       <path d="M 10.796875 72.90625 
L 49.515625 72.90625 
L 49.515625 64.59375 
L 19.828125 64.59375 
L 19.828125 46.734375 
Q 21.96875 47.46875 24.109375 47.828125 
Q 26.265625 48.1875 28.421875 48.1875 
Q 40.625 48.1875 47.75 41.5 
Q 54.890625 34.8125 54.890625 23.390625 
Q 54.890625 11.625 47.5625 5.09375 
Q 40.234375 -1.421875 26.90625 -1.421875 
Q 22.3125 -1.421875 17.546875 -0.640625 
Q 12.796875 0.140625 7.71875 1.703125 
L 7.71875 11.625 
Q 12.109375 9.234375 16.796875 8.0625 
Q 21.484375 6.890625 26.703125 6.890625 
Q 35.15625 6.890625 40.078125 11.328125 
Q 45.015625 15.765625 45.015625 23.390625 
Q 45.015625 31 40.078125 35.4375 
Q 35.15625 39.890625 26.703125 39.890625 
Q 22.75 39.890625 18.8125 39.015625 
Q 14.890625 38.140625 10.796875 36.28125 
z
" id="DejaVuSans-53"/>
      </defs>
      <g transform="translate(37.863187 94.211748)scale(0.1 -0.1)">
       <use xlink:href="#DejaVuSans-48"/>
       <use x="63.623047" xlink:href="#DejaVuSans-46"/>
       <use x="95.410156" xlink:href="#DejaVuSans-53"/>
      </g>
     </g>
    </g>
    <g id="ytick_5">
     <g id="line2d_10">
      <g>
       <use style="stroke:#000000;stroke-width:0.8;" x="60.766312" xlink:href="#m7dfc24333e" y="65.718314"/>
      </g>
     </g>
     <g id="text_11">
      <!-- 0.6 -->
      <g transform="translate(37.863187 69.517533)scale(0.1 -0.1)">
       <use xlink:href="#DejaVuSans-48"/>
       <use x="63.623047" xlink:href="#DejaVuSans-46"/>
       <use x="95.410156" xlink:href="#DejaVuSans-54"/>
      </g>
     </g>
    </g>
    <g id="ytick_6">
     <g id="line2d_11">
      <g>
       <use style="stroke:#000000;stroke-width:0.8;" x="60.766312" xlink:href="#m7dfc24333e" y="41.024099"/>
      </g>
     </g>
     <g id="text_12">
      <!-- 0.7 -->
      <defs>
       <path d="M 8.203125 72.90625 
L 55.078125 72.90625 
L 55.078125 68.703125 
L 28.609375 0 
L 18.3125 0 
L 43.21875 64.59375 
L 8.203125 64.59375 
z
" id="DejaVuSans-55"/>
      </defs>
      <g transform="translate(37.863187 44.823318)scale(0.1 -0.1)">
       <use xlink:href="#DejaVuSans-48"/>
       <use x="63.623047" xlink:href="#DejaVuSans-46"/>
       <use x="95.410156" xlink:href="#DejaVuSans-55"/>
      </g>
     </g>
    </g>
    <g id="text_13">
     <!-- Training Loss -->
     <defs>
      <path d="M -0.296875 72.90625 
L 61.375 72.90625 
L 61.375 64.59375 
L 35.5 64.59375 
L 35.5 0 
L 25.59375 0 
L 25.59375 64.59375 
L -0.296875 64.59375 
z
" id="DejaVuSans-84"/>
      <path d="M 41.109375 46.296875 
Q 39.59375 47.171875 37.8125 47.578125 
Q 36.03125 48 33.890625 48 
Q 26.265625 48 22.1875 43.046875 
Q 18.109375 38.09375 18.109375 28.8125 
L 18.109375 0 
L 9.078125 0 
L 9.078125 54.6875 
L 18.109375 54.6875 
L 18.109375 46.1875 
Q 20.953125 51.171875 25.484375 53.578125 
Q 30.03125 56 36.53125 56 
Q 37.453125 56 38.578125 55.875 
Q 39.703125 55.765625 41.0625 55.515625 
z
" id="DejaVuSans-114"/>
      <path d="M 34.28125 27.484375 
Q 23.390625 27.484375 19.1875 25 
Q 14.984375 22.515625 14.984375 16.5 
Q 14.984375 11.71875 18.140625 8.90625 
Q 21.296875 6.109375 26.703125 6.109375 
Q 34.1875 6.109375 38.703125 11.40625 
Q 43.21875 16.703125 43.21875 25.484375 
L 43.21875 27.484375 
z
M 52.203125 31.203125 
L 52.203125 0 
L 43.21875 0 
L 43.21875 8.296875 
Q 40.140625 3.328125 35.546875 0.953125 
Q 30.953125 -1.421875 24.3125 -1.421875 
Q 15.921875 -1.421875 10.953125 3.296875 
Q 6 8.015625 6 15.921875 
Q 6 25.140625 12.171875 29.828125 
Q 18.359375 34.515625 30.609375 34.515625 
L 43.21875 34.515625 
L 43.21875 35.40625 
Q 43.21875 41.609375 39.140625 45 
Q 35.0625 48.390625 27.6875 48.390625 
Q 23 48.390625 18.546875 47.265625 
Q 14.109375 46.140625 10.015625 43.890625 
L 10.015625 52.203125 
Q 14.9375 54.109375 19.578125 55.046875 
Q 24.21875 56 28.609375 56 
Q 40.484375 56 46.34375 49.84375 
Q 52.203125 43.703125 52.203125 31.203125 
z
" id="DejaVuSans-97"/>
      <path d="M 9.421875 54.6875 
L 18.40625 54.6875 
L 18.40625 0 
L 9.421875 0 
z
M 9.421875 75.984375 
L 18.40625 75.984375 
L 18.40625 64.59375 
L 9.421875 64.59375 
z
" id="DejaVuSans-105"/>
      <path d="M 54.890625 33.015625 
L 54.890625 0 
L 45.90625 0 
L 45.90625 32.71875 
Q 45.90625 40.484375 42.875 44.328125 
Q 39.84375 48.1875 33.796875 48.1875 
Q 26.515625 48.1875 22.3125 43.546875 
Q 18.109375 38.921875 18.109375 30.90625 
L 18.109375 0 
L 9.078125 0 
L 9.078125 54.6875 
L 18.109375 54.6875 
L 18.109375 46.1875 
Q 21.34375 51.125 25.703125 53.5625 
Q 30.078125 56 35.796875 56 
Q 45.21875 56 50.046875 50.171875 
Q 54.890625 44.34375 54.890625 33.015625 
z
" id="DejaVuSans-110"/>
      <path d="M 45.40625 27.984375 
Q 45.40625 37.75 41.375 43.109375 
Q 37.359375 48.484375 30.078125 48.484375 
Q 22.859375 48.484375 18.828125 43.109375 
Q 14.796875 37.75 14.796875 27.984375 
Q 14.796875 18.265625 18.828125 12.890625 
Q 22.859375 7.515625 30.078125 7.515625 
Q 37.359375 7.515625 41.375 12.890625 
Q 45.40625 18.265625 45.40625 27.984375 
z
M 54.390625 6.78125 
Q 54.390625 -7.171875 48.1875 -13.984375 
Q 42 -20.796875 29.203125 -20.796875 
Q 24.46875 -20.796875 20.265625 -20.09375 
Q 16.0625 -19.390625 12.109375 -17.921875 
L 12.109375 -9.1875 
Q 16.0625 -11.328125 19.921875 -12.34375 
Q 23.78125 -13.375 27.78125 -13.375 
Q 36.625 -13.375 41.015625 -8.765625 
Q 45.40625 -4.15625 45.40625 5.171875 
L 45.40625 9.625 
Q 42.625 4.78125 38.28125 2.390625 
Q 33.9375 0 27.875 0 
Q 17.828125 0 11.671875 7.65625 
Q 5.515625 15.328125 5.515625 27.984375 
Q 5.515625 40.671875 11.671875 48.328125 
Q 17.828125 56 27.875 56 
Q 33.9375 56 38.28125 53.609375 
Q 42.625 51.21875 45.40625 46.390625 
L 45.40625 54.6875 
L 54.390625 54.6875 
z
" id="DejaVuSans-103"/>
      <path id="DejaVuSans-32"/>
      <path d="M 9.8125 72.90625 
L 19.671875 72.90625 
L 19.671875 8.296875 
L 55.171875 8.296875 
L 55.171875 0 
L 9.8125 0 
z
" id="DejaVuSans-76"/>
      <path d="M 30.609375 48.390625 
Q 23.390625 48.390625 19.1875 42.75 
Q 14.984375 37.109375 14.984375 27.296875 
Q 14.984375 17.484375 19.15625 11.84375 
Q 23.34375 6.203125 30.609375 6.203125 
Q 37.796875 6.203125 41.984375 11.859375 
Q 46.1875 17.53125 46.1875 27.296875 
Q 46.1875 37.015625 41.984375 42.703125 
Q 37.796875 48.390625 30.609375 48.390625 
z
M 30.609375 56 
Q 42.328125 56 49.015625 48.375 
Q 55.71875 40.765625 55.71875 27.296875 
Q 55.71875 13.875 49.015625 6.21875 
Q 42.328125 -1.421875 30.609375 -1.421875 
Q 18.84375 -1.421875 12.171875 6.21875 
Q 5.515625 13.875 5.515625 27.296875 
Q 5.515625 40.765625 12.171875 48.375 
Q 18.84375 56 30.609375 56 
z
" id="DejaVuSans-111"/>
      <path d="M 44.28125 53.078125 
L 44.28125 44.578125 
Q 40.484375 46.53125 36.375 47.5 
Q 32.28125 48.484375 27.875 48.484375 
Q 21.1875 48.484375 17.84375 46.4375 
Q 14.5 44.390625 14.5 40.28125 
Q 14.5 37.15625 16.890625 35.375 
Q 19.28125 33.59375 26.515625 31.984375 
L 29.59375 31.296875 
Q 39.15625 29.25 43.1875 25.515625 
Q 47.21875 21.78125 47.21875 15.09375 
Q 47.21875 7.46875 41.1875 3.015625 
Q 35.15625 -1.421875 24.609375 -1.421875 
Q 20.21875 -1.421875 15.453125 -0.5625 
Q 10.6875 0.296875 5.421875 2 
L 5.421875 11.28125 
Q 10.40625 8.6875 15.234375 7.390625 
Q 20.0625 6.109375 24.8125 6.109375 
Q 31.15625 6.109375 34.5625 8.28125 
Q 37.984375 10.453125 37.984375 14.40625 
Q 37.984375 18.0625 35.515625 20.015625 
Q 33.0625 21.96875 24.703125 23.78125 
L 21.578125 24.515625 
Q 13.234375 26.265625 9.515625 29.90625 
Q 5.8125 33.546875 5.8125 39.890625 
Q 5.8125 47.609375 11.28125 51.796875 
Q 16.75 56 26.8125 56 
Q 31.78125 56 36.171875 55.265625 
Q 40.578125 54.546875 44.28125 53.078125 
z
" id="DejaVuSans-115"/>
     </defs>
     <g transform="translate(31.7835 131.782031)rotate(-90)scale(0.1 -0.1)">
      <use xlink:href="#DejaVuSans-84"/>
      <use x="46.333984" xlink:href="#DejaVuSans-114"/>
      <use x="87.447266" xlink:href="#DejaVuSans-97"/>
      <use x="148.726562" xlink:href="#DejaVuSans-105"/>
      <use x="176.509766" xlink:href="#DejaVuSans-110"/>
      <use x="239.888672" xlink:href="#DejaVuSans-105"/>
      <use x="267.671875" xlink:href="#DejaVuSans-110"/>
      <use x="331.050781" xlink:href="#DejaVuSans-103"/>
      <use x="394.527344" xlink:href="#DejaVuSans-32"/>
      <use x="426.314453" xlink:href="#DejaVuSans-76"/>
      <use x="480.277344" xlink:href="#DejaVuSans-111"/>
      <use x="541.458984" xlink:href="#DejaVuSans-115"/>
      <use x="593.558594" xlink:href="#DejaVuSans-115"/>
     </g>
    </g>
   </g>
   <g id="line2d_12">
    <path clip-path="url(#p03a7ab13c7)" d="M 68.692593 35.764231 
L 70.674163 48.975636 
L 72.655733 48.827471 
L 74.637303 60.458446 
L 76.618873 81.053421 
L 78.600443 94.585851 
L 80.582013 108.710942 
L 82.563583 107.624397 
L 84.545153 113.946116 
L 86.526724 118.36638 
L 88.508294 118.218215 
L 90.489864 122.440926 
L 92.471434 119.354149 
L 94.453004 120.638248 
L 96.434574 126.120364 
L 98.416144 120.24314 
L 100.397714 124.317686 
L 102.379284 128.466314 
L 104.360854 129.009587 
L 106.342425 135.701719 
L 108.323995 130.861653 
L 110.305565 123.502777 
L 112.287135 125.181983 
L 114.268705 127.700793 
L 116.250275 128.984893 
L 118.231845 133.133521 
L 120.213415 126.638942 
L 122.194985 132.935967 
L 124.176555 130.639405 
L 126.158126 137.850116 
L 128.139696 130.762876 
L 130.121266 131.404926 
L 132.102836 133.997818 
L 134.084406 133.503934 
L 136.065976 135.652331 
L 138.047546 133.923736 
L 140.029116 135.084364 
L 142.010686 131.528397 
L 143.992256 137.430314 
L 145.973827 142.319769 
L 147.955397 128.367537 
L 149.936967 137.059901 
L 151.918537 135.677025 
L 153.900107 137.948893 
L 155.881677 143.628562 
L 157.863247 133.923736 
L 159.844817 137.677256 
L 161.826387 142.517322 
L 163.807957 139.158909 
L 165.789528 138.98605 
L 167.771098 138.590942 
L 169.752668 138.097058 
L 171.734238 136.368463 
L 173.715808 138.121752 
L 175.697378 144.78919 
L 177.678948 140.838116 
L 179.660518 139.800959 
L 181.642088 146.986975 
L 183.623658 143.924893 
L 185.605229 141.109752 
L 187.586799 141.727107 
L 189.568369 142.418545 
L 191.549939 139.529322 
L 193.531509 149.431702 
L 195.513079 138.911967 
L 197.494649 143.184066 
L 199.476219 145.307769 
L 201.457789 145.184298 
L 203.439359 142.097521 
L 205.42093 142.517322 
L 207.4025 145.530017 
L 209.38407 139.677488 
L 211.36564 144.641025 
L 213.34721 145.90043 
L 215.32878 142.171603 
L 217.31035 151.827041 
L 219.29192 141.060364 
L 221.27349 142.863041 
L 223.25506 148.88843 
L 225.236631 147.77719 
L 227.218201 141.307306 
" style="fill:none;stroke:#1f77b4;stroke-linecap:square;stroke-width:1.5;"/>
   </g>
   <g id="line2d_13">
    <path clip-path="url(#p03a7ab13c7)" d="M 68.692593 43.444132 
L 70.674163 48.679306 
L 72.655733 48.629917 
L 74.637303 60.409058 
L 76.618873 88.362909 
L 78.600443 101.500231 
L 80.582013 113.600397 
L 82.563583 114.588165 
L 84.545153 114.588165 
L 86.526724 117.699636 
L 88.508294 116.687174 
L 90.489864 123.527471 
L 92.471434 119.403537 
L 94.453004 119.699868 
L 96.434574 128.416926 
L 98.416144 117.995967 
L 100.397714 126.120364 
L 102.379284 127.725488 
L 104.360854 130.911041 
L 106.342425 134.985587 
L 108.323995 131.380231 
L 110.305565 126.095669 
L 112.287135 123.650942 
L 114.268705 128.145289 
L 116.250275 131.948198 
L 118.231845 136.29438 
L 120.213415 125.725256 
L 122.194985 133.355769 
L 124.176555 131.25676 
L 126.158126 136.961124 
L 128.139696 128.367537 
L 130.121266 134.442314 
L 132.102836 138.615636 
L 134.084406 134.985587 
L 136.065976 135.084364 
L 138.047546 135.034975 
L 140.029116 135.010281 
L 142.010686 135.602942 
L 143.992256 139.677488 
L 145.973827 141.282612 
L 147.955397 129.626942 
L 149.936967 135.849884 
L 151.918537 134.491702 
L 153.900107 138.022975 
L 155.881677 144.542248 
L 157.863247 141.208529 
L 159.844817 138.739107 
L 161.826387 143.628562 
L 163.807957 142.220992 
L 165.789528 141.134446 
L 167.771098 140.615868 
L 169.752668 134.639868 
L 171.734238 139.208298 
L 173.715808 142.27038 
L 175.697378 147.382083 
L 177.678948 142.640793 
L 179.660518 142.863041 
L 181.642088 145.455934 
L 183.623658 149.678645 
L 185.605229 143.356926 
L 187.586799 142.344463 
L 189.568369 142.344463 
L 191.549939 145.357157 
L 193.531509 155.086678 
L 195.513079 141.653025 
L 197.494649 144.616331 
L 199.476219 145.949818 
L 201.457789 148.122909 
L 203.439359 145.653488 
L 205.42093 143.184066 
L 207.4025 146.097983 
L 209.38407 138.294612 
L 211.36564 144.690413 
L 213.34721 146.616562 
L 215.32878 143.628562 
L 217.31035 153.45686 
L 219.29192 146.937587 
L 221.27349 145.480628 
L 223.25506 145.875736 
L 225.236631 150.246612 
L 227.218201 142.887736 
" style="fill:none;stroke:#ff7f0e;stroke-linecap:square;stroke-width:1.5;"/>
   </g>
   <g id="line2d_14">
    <path clip-path="url(#p03a7ab13c7)" d="M 68.692593 42.950248 
L 70.674163 49.197884 
L 72.655733 51.296893 
L 74.637303 69.052033 
L 76.618873 105.105587 
L 78.600443 107.031736 
L 80.582013 117.106975 
L 82.563583 123.008893 
L 84.545153 126.638942 
L 86.526724 128.342843 
L 88.508294 123.206446 
L 90.489864 132.54086 
L 92.471434 128.614479 
L 94.453004 128.663868 
L 96.434574 134.121289 
L 98.416144 127.700793 
L 100.397714 134.837421 
L 102.379284 134.639868 
L 104.360854 135.454777 
L 106.342425 146.616562 
L 108.323995 137.726645 
L 110.305565 135.084364 
L 112.287135 129.602248 
L 114.268705 135.331306 
L 116.250275 136.93643 
L 118.231845 142.91243 
L 120.213415 136.121521 
L 122.194985 140.936893 
L 124.176555 140.121983 
L 126.158126 143.628562 
L 128.139696 136.393157 
L 130.121266 145.628793 
L 132.102836 144.813884 
L 134.084406 145.480628 
L 136.065976 140.121983 
L 138.047546 147.011669 
L 140.029116 143.060595 
L 142.010686 142.640793 
L 143.992256 145.43124 
L 145.973827 149.283537 
L 147.955397 140.912198 
L 149.936967 147.406777 
L 151.918537 143.702645 
L 153.900107 146.270843 
L 155.881677 151.110909 
L 157.863247 145.604099 
L 159.844817 145.43124 
L 161.826387 150.12314 
L 163.807957 150.592331 
L 165.789528 149.332926 
L 167.771098 150.789884 
L 169.752668 141.50486 
L 171.734238 149.505785 
L 173.715808 146.66595 
L 175.697378 153.481554 
L 177.678948 152.098678 
L 179.660518 149.456397 
L 181.642088 155.210149 
L 183.623658 155.605256 
L 185.605229 153.160529 
L 187.586799 150.147835 
L 189.568369 153.605025 
L 191.549939 151.580099 
L 193.531509 159.334083 
L 195.513079 148.24638 
L 197.494649 154.172992 
L 199.476219 155.16076 
L 201.457789 155.481785 
L 203.439359 151.23438 
L 205.42093 153.876661 
L 207.4025 155.111372 
L 209.38407 154.39524 
L 211.36564 152.17276 
L 213.34721 159.26 
L 215.32878 149.135372 
L 217.31035 159.679802 
L 219.29192 149.258843 
L 221.27349 155.481785 
L 223.25506 161.235537 
L 225.236631 155.432397 
L 227.218201 148.468628 
" style="fill:none;stroke:#2ca02c;stroke-linecap:square;stroke-width:1.5;"/>
   </g>
   <g id="line2d_15">
    <path clip-path="url(#p03a7ab13c7)" d="M 68.692593 45.938248 
L 70.674163 48.382975 
L 72.655733 54.828165 
L 74.637303 90.931107 
L 76.618873 108.562777 
L 78.600443 98.339372 
L 80.582013 112.933653 
L 82.563583 114.662248 
L 84.545153 114.118975 
L 86.526724 121.033355 
L 88.508294 114.884496 
L 90.489864 124.04605 
L 92.471434 119.897421 
L 94.453004 119.996198 
L 96.434574 127.03405 
L 98.416144 119.922116 
L 100.397714 126.56486 
L 102.379284 127.404463 
L 104.360854 128.219372 
L 106.342425 132.738413 
L 108.323995 129.330612 
L 110.305565 123.157058 
L 112.287135 124.095438 
L 114.268705 125.428926 
L 116.250275 129.947967 
L 118.231845 135.52886 
L 120.213415 125.45362 
L 122.194985 130.590017 
L 124.176555 129.38 
L 126.158126 134.121289 
L 128.139696 127.79957 
L 130.121266 130.49124 
L 132.102836 137.282149 
L 134.084406 133.108826 
L 136.065976 131.25676 
L 138.047546 134.121289 
L 140.029116 132.269223 
L 142.010686 132.491471 
L 143.992256 137.010512 
L 145.973827 139.010744 
L 147.955397 131.701256 
L 149.936967 134.590479 
L 151.918537 134.738645 
L 153.900107 137.825421 
L 155.881677 140.813421 
L 157.863247 137.010512 
L 159.844817 136.911736 
L 161.826387 143.875504 
L 163.807957 139.603405 
L 165.789528 140.072595 
L 167.771098 139.949124 
L 169.752668 135.257223 
L 171.734238 135.800496 
L 173.715808 136.195603 
L 175.697378 141.727107 
L 177.678948 143.159372 
L 179.660518 138.022975 
L 181.642088 143.480397 
L 183.623658 144.96205 
L 185.605229 140.541785 
L 187.586799 143.529785 
L 189.568369 139.949124 
L 191.549939 139.183603 
L 193.531509 152.395008 
L 195.513079 137.627868 
L 197.494649 145.455934 
L 199.476219 142.838347 
L 201.457789 145.357157 
L 203.439359 141.949355 
L 205.42093 143.702645 
L 207.4025 142.048132 
L 209.38407 140.86281 
L 211.36564 144.863273 
L 213.34721 147.382083 
L 215.32878 140.072595 
L 217.31035 150.370083 
L 219.29192 142.418545 
L 221.27349 143.011207 
L 223.25506 143.998975 
L 225.236631 144.566942 
L 227.218201 137.825421 
" style="fill:none;stroke:#d62728;stroke-linecap:square;stroke-width:1.5;"/>
   </g>
   <g id="patch_3">
    <path d="M 60.766312 174.2 
L 60.766312 24.8 
" style="fill:none;stroke:#000000;stroke-linecap:square;stroke-linejoin:miter;stroke-width:0.8;"/>
   </g>
   <g id="patch_4">
    <path d="M 60.766312 174.2 
L 235.144481 174.2 
" style="fill:none;stroke:#000000;stroke-linecap:square;stroke-linejoin:miter;stroke-width:0.8;"/>
   </g>
   <g id="text_14">
    <!-- max_length = 256 -->
    <defs>
     <path d="M 52 44.1875 
Q 55.375 50.25 60.0625 53.125 
Q 64.75 56 71.09375 56 
Q 79.640625 56 84.28125 50.015625 
Q 88.921875 44.046875 88.921875 33.015625 
L 88.921875 0 
L 79.890625 0 
L 79.890625 32.71875 
Q 79.890625 40.578125 77.09375 44.375 
Q 74.3125 48.1875 68.609375 48.1875 
Q 61.625 48.1875 57.5625 43.546875 
Q 53.515625 38.921875 53.515625 30.90625 
L 53.515625 0 
L 44.484375 0 
L 44.484375 32.71875 
Q 44.484375 40.625 41.703125 44.40625 
Q 38.921875 48.1875 33.109375 48.1875 
Q 26.21875 48.1875 22.15625 43.53125 
Q 18.109375 38.875 18.109375 30.90625 
L 18.109375 0 
L 9.078125 0 
L 9.078125 54.6875 
L 18.109375 54.6875 
L 18.109375 46.1875 
Q 21.1875 51.21875 25.484375 53.609375 
Q 29.78125 56 35.6875 56 
Q 41.65625 56 45.828125 52.96875 
Q 50 49.953125 52 44.1875 
z
" id="DejaVuSans-109"/>
     <path d="M 54.890625 54.6875 
L 35.109375 28.078125 
L 55.90625 0 
L 45.3125 0 
L 29.390625 21.484375 
L 13.484375 0 
L 2.875 0 
L 24.125 28.609375 
L 4.6875 54.6875 
L 15.28125 54.6875 
L 29.78125 35.203125 
L 44.28125 54.6875 
z
" id="DejaVuSans-120"/>
     <path d="M 50.984375 -16.609375 
L 50.984375 -23.578125 
L -0.984375 -23.578125 
L -0.984375 -16.609375 
z
" id="DejaVuSans-95"/>
     <path d="M 9.421875 75.984375 
L 18.40625 75.984375 
L 18.40625 0 
L 9.421875 0 
z
" id="DejaVuSans-108"/>
     <path d="M 54.890625 33.015625 
L 54.890625 0 
L 45.90625 0 
L 45.90625 32.71875 
Q 45.90625 40.484375 42.875 44.328125 
Q 39.84375 48.1875 33.796875 48.1875 
Q 26.515625 48.1875 22.3125 43.546875 
Q 18.109375 38.921875 18.109375 30.90625 
L 18.109375 0 
L 9.078125 0 
L 9.078125 75.984375 
L 18.109375 75.984375 
L 18.109375 46.1875 
Q 21.34375 51.125 25.703125 53.5625 
Q 30.078125 56 35.796875 56 
Q 45.21875 56 50.046875 50.171875 
Q 54.890625 44.34375 54.890625 33.015625 
z
" id="DejaVuSans-104"/>
     <path d="M 10.59375 45.40625 
L 73.1875 45.40625 
L 73.1875 37.203125 
L 10.59375 37.203125 
z
M 10.59375 25.484375 
L 73.1875 25.484375 
L 73.1875 17.1875 
L 10.59375 17.1875 
z
" id="DejaVuSans-61"/>
    </defs>
    <g transform="translate(101.712428 18.8)scale(0.1 -0.1)">
     <use xlink:href="#DejaVuSans-109"/>
     <use x="97.412109" xlink:href="#DejaVuSans-97"/>
     <use x="158.691406" xlink:href="#DejaVuSans-120"/>
     <use x="217.871094" xlink:href="#DejaVuSans-95"/>
     <use x="267.871094" xlink:href="#DejaVuSans-108"/>
     <use x="295.654297" xlink:href="#DejaVuSans-101"/>
     <use x="357.177734" xlink:href="#DejaVuSans-110"/>
     <use x="420.556641" xlink:href="#DejaVuSans-103"/>
     <use x="484.033203" xlink:href="#DejaVuSans-116"/>
     <use x="523.242188" xlink:href="#DejaVuSans-104"/>
     <use x="586.621094" xlink:href="#DejaVuSans-32"/>
     <use x="618.408203" xlink:href="#DejaVuSans-61"/>
     <use x="702.197266" xlink:href="#DejaVuSans-32"/>
     <use x="733.984375" xlink:href="#DejaVuSans-50"/>
     <use x="797.607422" xlink:href="#DejaVuSans-53"/>
     <use x="861.230469" xlink:href="#DejaVuSans-54"/>
    </g>
   </g>
  </g>
  <g id="axes_2">
   <g id="patch_5">
    <path d="M 252.115581 174.2 
L 426.49375 174.2 
L 426.49375 24.8 
L 252.115581 24.8 
z
" style="fill:#ffffff;"/>
   </g>
   <g id="matplotlib.axis_3">
    <g id="xtick_6">
     <g id="line2d_16">
      <g>
       <use style="stroke:#000000;stroke-width:0.8;" x="258.060291" xlink:href="#me0ef26de15" y="174.2"/>
      </g>
     </g>
     <g id="text_15">
      <!-- 0 -->
      <g transform="translate(254.879041 188.798438)scale(0.1 -0.1)">
       <use xlink:href="#DejaVuSans-48"/>
      </g>
     </g>
    </g>
    <g id="xtick_7">
     <g id="line2d_17">
      <g>
       <use style="stroke:#000000;stroke-width:0.8;" x="297.691693" xlink:href="#me0ef26de15" y="174.2"/>
      </g>
     </g>
     <g id="text_16">
      <!-- 2000 -->
      <g transform="translate(284.966693 188.798438)scale(0.1 -0.1)">
       <use xlink:href="#DejaVuSans-50"/>
       <use x="63.623047" xlink:href="#DejaVuSans-48"/>
       <use x="127.246094" xlink:href="#DejaVuSans-48"/>
       <use x="190.869141" xlink:href="#DejaVuSans-48"/>
      </g>
     </g>
    </g>
    <g id="xtick_8">
     <g id="line2d_18">
      <g>
       <use style="stroke:#000000;stroke-width:0.8;" x="337.323095" xlink:href="#me0ef26de15" y="174.2"/>
      </g>
     </g>
     <g id="text_17">
      <!-- 4000 -->
      <g transform="translate(324.598095 188.798438)scale(0.1 -0.1)">
       <use xlink:href="#DejaVuSans-52"/>
       <use x="63.623047" xlink:href="#DejaVuSans-48"/>
       <use x="127.246094" xlink:href="#DejaVuSans-48"/>
       <use x="190.869141" xlink:href="#DejaVuSans-48"/>
      </g>
     </g>
    </g>
    <g id="xtick_9">
     <g id="line2d_19">
      <g>
       <use style="stroke:#000000;stroke-width:0.8;" x="376.954497" xlink:href="#me0ef26de15" y="174.2"/>
      </g>
     </g>
     <g id="text_18">
      <!-- 6000 -->
      <g transform="translate(364.229497 188.798438)scale(0.1 -0.1)">
       <use xlink:href="#DejaVuSans-54"/>
       <use x="63.623047" xlink:href="#DejaVuSans-48"/>
       <use x="127.246094" xlink:href="#DejaVuSans-48"/>
       <use x="190.869141" xlink:href="#DejaVuSans-48"/>
      </g>
     </g>
    </g>
    <g id="xtick_10">
     <g id="line2d_20">
      <g>
       <use style="stroke:#000000;stroke-width:0.8;" x="416.585899" xlink:href="#me0ef26de15" y="174.2"/>
      </g>
     </g>
     <g id="text_19">
      <!-- 8000 -->
      <g transform="translate(403.860899 188.798438)scale(0.1 -0.1)">
       <use xlink:href="#DejaVuSans-56"/>
       <use x="63.623047" xlink:href="#DejaVuSans-48"/>
       <use x="127.246094" xlink:href="#DejaVuSans-48"/>
       <use x="190.869141" xlink:href="#DejaVuSans-48"/>
      </g>
     </g>
    </g>
    <g id="text_20">
     <!-- Step -->
     <g transform="translate(327.919509 202.476562)scale(0.1 -0.1)">
      <use xlink:href="#DejaVuSans-83"/>
      <use x="63.476562" xlink:href="#DejaVuSans-116"/>
      <use x="102.685547" xlink:href="#DejaVuSans-101"/>
      <use x="164.208984" xlink:href="#DejaVuSans-112"/>
     </g>
    </g>
   </g>
   <g id="matplotlib.axis_4">
    <g id="ytick_7">
     <g id="line2d_21">
      <g>
       <use style="stroke:#000000;stroke-width:0.8;" x="252.115581" xlink:href="#m7dfc24333e" y="164.495174"/>
      </g>
     </g>
    </g>
    <g id="ytick_8">
     <g id="line2d_22">
      <g>
       <use style="stroke:#000000;stroke-width:0.8;" x="252.115581" xlink:href="#m7dfc24333e" y="139.800959"/>
      </g>
     </g>
    </g>
    <g id="ytick_9">
     <g id="line2d_23">
      <g>
       <use style="stroke:#000000;stroke-width:0.8;" x="252.115581" xlink:href="#m7dfc24333e" y="115.106744"/>
      </g>
     </g>
    </g>
    <g id="ytick_10">
     <g id="line2d_24">
      <g>
       <use style="stroke:#000000;stroke-width:0.8;" x="252.115581" xlink:href="#m7dfc24333e" y="90.412529"/>
      </g>
     </g>
    </g>
    <g id="ytick_11">
     <g id="line2d_25">
      <g>
       <use style="stroke:#000000;stroke-width:0.8;" x="252.115581" xlink:href="#m7dfc24333e" y="65.718314"/>
      </g>
     </g>
    </g>
    <g id="ytick_12">
     <g id="line2d_26">
      <g>
       <use style="stroke:#000000;stroke-width:0.8;" x="252.115581" xlink:href="#m7dfc24333e" y="41.024099"/>
      </g>
     </g>
    </g>
   </g>
   <g id="line2d_27">
    <path clip-path="url(#p855c8667a8)" d="M 260.041862 39.023868 
L 262.023432 48.382975 
L 264.005002 48.111339 
L 265.986572 59.124959 
L 267.968142 82.658545 
L 269.949712 101.302678 
L 271.931282 116.168595 
L 273.912852 125.330149 
L 275.894422 120.391306 
L 277.875992 131.009818 
L 279.857563 128.614479 
L 281.839133 136.738876 
L 283.820703 134.121289 
L 285.802273 132.614942 
L 287.783843 137.652562 
L 289.765413 130.343074 
L 291.746983 134.368231 
L 293.728553 139.949124 
L 295.710123 141.109752 
L 297.691693 149.950281 
L 299.673264 141.233223 
L 301.654834 135.084364 
L 303.636404 138.17114 
L 305.617974 143.949587 
L 307.599544 142.467934 
L 309.581114 146.517785 
L 311.562684 138.714413 
L 313.544254 148.542711 
L 315.525824 148.542711 
L 317.507394 147.061058 
L 319.488965 139.405851 
L 321.470535 148.024132 
L 323.452105 145.702876 
L 325.433675 149.678645 
L 327.415245 148.740264 
L 329.396815 146.221455 
L 331.378385 145.233686 
L 333.359955 148.098215 
L 335.341525 153.11114 
L 337.323095 154.938512 
L 339.304666 147.925355 
L 341.286236 152.024595 
L 343.267806 148.71557 
L 345.249376 150.394777 
L 347.230946 155.778116 
L 349.212516 151.950512 
L 351.194086 149.950281 
L 353.175656 154.642182 
L 355.157226 152.962975 
L 357.138796 150.024364 
L 359.120367 155.605256 
L 361.101937 148.740264 
L 363.083507 153.629719 
L 365.065077 150.024364 
L 367.046647 156.938744 
L 369.028217 154.000132 
L 371.009787 154.740959 
L 372.991357 158.395702 
L 374.972927 157.012826 
L 376.954497 155.654645 
L 378.936068 155.284231 
L 380.917638 157.21038 
L 382.899208 156.049752 
L 384.880778 163.309851 
L 386.862348 153.92605 
L 388.843918 155.481785 
L 390.825488 158.469785 
L 392.807058 158.864893 
L 394.788628 159.037752 
L 396.770198 159.136529 
L 398.751769 159.852661 
L 400.733339 153.407471 
L 402.714909 155.827504 
L 404.696479 156.963438 
L 406.678049 155.481785 
L 408.659619 157.38324 
L 410.641189 154.39524 
L 412.622759 158.272231 
L 414.604329 156.049752 
L 416.585899 157.482017 
L 418.56747 152.17276 
" style="fill:none;stroke:#1f77b4;stroke-linecap:square;stroke-width:1.5;"/>
   </g>
   <g id="line2d_28">
    <path clip-path="url(#p855c8667a8)" d="M 260.041862 48.753388 
L 262.023432 48.827471 
L 264.005002 48.086645 
L 265.986572 65.545455 
L 267.968142 100.463074 
L 269.949712 116.909421 
L 271.931282 125.774645 
L 273.912852 128.861421 
L 275.894422 128.688562 
L 277.875992 136.590711 
L 279.857563 134.862116 
L 281.839133 137.652562 
L 283.820703 137.70195 
L 285.802273 136.516628 
L 287.783843 142.764264 
L 289.765413 139.92443 
L 291.746983 139.331769 
L 293.728553 146.542479 
L 295.710123 146.172066 
L 297.691693 153.728496 
L 299.673264 145.826347 
L 301.654834 141.406083 
L 303.636404 144.887967 
L 305.617974 144.394083 
L 307.599544 148.542711 
L 309.581114 154.592793 
L 311.562684 144.764496 
L 313.544254 150.147835 
L 315.525824 154.296463 
L 317.507394 153.061752 
L 319.488965 144.468165 
L 321.470535 149.851504 
L 323.452105 150.592331 
L 325.433675 155.753421 
L 327.415245 150.691107 
L 329.396815 150.863967 
L 331.378385 152.271537 
L 333.359955 154.889124 
L 335.341525 154.247074 
L 337.323095 158.642645 
L 339.304666 155.308926 
L 341.286236 154.642182 
L 343.267806 152.913587 
L 345.249376 154.123603 
L 347.230946 159.753884 
L 349.212516 155.136066 
L 351.194086 155.457091 
L 353.175656 157.753653 
L 355.157226 158.000595 
L 357.138796 155.234843 
L 359.120367 159.284694 
L 361.101937 154.444628 
L 363.083507 153.654413 
L 365.065077 156.765884 
L 367.046647 164.371702 
L 369.028217 162.025752 
L 371.009787 158.815504 
L 372.991357 161.581256 
L 374.972927 160.914512 
L 376.954497 158.692033 
L 378.936068 159.976132 
L 380.917638 160.642876 
L 382.899208 161.235537 
L 384.880778 166.495405 
L 386.862348 158.371008 
L 388.843918 162.494942 
L 390.825488 164.001289 
L 392.807058 164.149455 
L 394.788628 159.72919 
L 396.770198 162.050446 
L 398.751769 160.642876 
L 400.733339 156.815273 
L 402.714909 159.778579 
L 404.696479 161.852893 
L 406.678049 160.593488 
L 408.659619 165.853355 
L 410.641189 159.013058 
L 412.622759 163.853124 
L 414.604329 162.791273 
L 416.585899 158.864893 
L 418.56747 159.753884 
" style="fill:none;stroke:#ff7f0e;stroke-linecap:square;stroke-width:1.5;"/>
   </g>
   <g id="line2d_29">
    <path clip-path="url(#p855c8667a8)" d="M 260.041862 31.590909 
L 262.023432 49.64238 
L 264.005002 52.63038 
L 265.986572 73.447603 
L 267.968142 109.40238 
L 269.949712 113.748562 
L 271.931282 124.416463 
L 273.912852 132.565554 
L 275.894422 131.232066 
L 277.875992 138.541554 
L 279.857563 132.763107 
L 281.839133 141.406083 
L 283.820703 141.998744 
L 285.802273 142.196298 
L 287.783843 142.295074 
L 289.765413 138.788496 
L 291.746983 141.628331 
L 293.728553 144.097752 
L 295.710123 146.740033 
L 297.691693 152.543174 
L 299.673264 146.394314 
L 301.654834 139.850347 
L 303.636404 145.949818 
L 305.617974 144.245917 
L 307.599544 149.456397 
L 309.581114 150.46886 
L 311.562684 146.19676 
L 313.544254 151.23438 
L 315.525824 151.925818 
L 317.507394 155.358314 
L 319.488965 143.332231 
L 321.470535 152.617256 
L 323.452105 152.567868 
L 325.433675 154.098909 
L 327.415245 149.900893 
L 329.396815 152.888893 
L 331.378385 151.87643 
L 333.359955 153.530942 
L 335.341525 152.888893 
L 337.323095 158.79081 
L 339.304666 153.75319 
L 341.286236 154.098909 
L 343.267806 151.012132 
L 345.249376 158.173455 
L 347.230946 159.556331 
L 349.212516 154.024826 
L 351.194086 155.33362 
L 353.175656 158.14876 
L 355.157226 158.099372 
L 357.138796 153.975438 
L 359.120367 160.445322 
L 361.101937 151.629488 
L 363.083507 157.654876 
L 365.065077 156.691802 
L 367.046647 163.532099 
L 369.028217 161.507174 
L 371.009787 158.593256 
L 372.991357 162.667802 
L 374.972927 162.173917 
L 376.954497 161.630645 
L 378.936068 160.000826 
L 380.917638 163.951901 
L 382.899208 158.61795 
L 384.880778 167.409091 
L 386.862348 157.728959 
L 388.843918 160.395934 
L 390.825488 164.519868 
L 392.807058 163.532099 
L 394.788628 160.173686 
L 396.770198 161.902281 
L 398.751769 163.211074 
L 400.733339 158.247537 
L 402.714909 160.223074 
L 404.696479 163.334545 
L 406.678049 156.839967 
L 408.659619 166.594182 
L 410.641189 157.67957 
L 412.622759 164.668033 
L 414.604329 161.210843 
L 416.585899 163.136992 
L 418.56747 159.90205 
" style="fill:none;stroke:#2ca02c;stroke-linecap:square;stroke-width:1.5;"/>
   </g>
   <g id="line2d_30">
    <path clip-path="url(#p855c8667a8)" d="M 260.041862 40.554909 
L 262.023432 46.926017 
L 264.005002 50.383207 
L 265.986572 87.029421 
L 267.968142 114.316529 
L 269.949712 111.723636 
L 271.931282 120.737025 
L 273.912852 128.021818 
L 275.894422 124.910347 
L 277.875992 134.392926 
L 279.857563 128.935504 
L 281.839133 137.133983 
L 283.820703 132.368 
L 285.802273 133.923736 
L 287.783843 140.121983 
L 289.765413 133.94843 
L 291.746983 140.492397 
L 293.728553 138.590942 
L 295.710123 139.628099 
L 297.691693 147.826579 
L 299.673264 138.022975 
L 301.654834 132.83719 
L 303.636404 135.726413 
L 305.617974 141.035669 
L 307.599544 141.578942 
L 309.581114 149.283537 
L 311.562684 138.541554 
L 313.544254 143.826116 
L 315.525824 148.098215 
L 317.507394 146.83881 
L 319.488965 139.45524 
L 321.470535 146.073289 
L 323.452105 147.061058 
L 325.433675 148.740264 
L 327.415245 145.628793 
L 329.396815 144.048364 
L 331.378385 146.542479 
L 333.359955 147.184529 
L 335.341525 147.431471 
L 337.323095 151.975207 
L 339.304666 150.493554 
L 341.286236 147.382083 
L 343.267806 148.987207 
L 345.249376 149.234149 
L 347.230946 156.321388 
L 349.212516 152.469091 
L 351.194086 146.789421 
L 353.175656 153.481554 
L 355.157226 151.555405 
L 357.138796 147.629025 
L 359.120367 154.938512 
L 361.101937 147.678413 
L 363.083507 154.271769 
L 365.065077 143.702645 
L 367.046647 156.44486 
L 369.028217 156.321388 
L 371.009787 152.617256 
L 372.991357 155.975669 
L 374.972927 155.679339 
L 376.954497 154.518711 
L 378.936068 155.950975 
L 380.917638 157.235074 
L 382.899208 157.556099 
L 384.880778 161.186149 
L 386.862348 149.456397 
L 388.843918 158.766116 
L 390.825488 156.494248 
L 392.807058 155.852198 
L 394.788628 158.14876 
L 396.770198 153.308694 
L 398.751769 157.827736 
L 400.733339 151.506017 
L 402.714909 154.617488 
L 404.696479 157.506711 
L 406.678049 154.642182 
L 408.659619 156.44486 
L 410.641189 153.012364 
L 412.622759 162.297388 
L 414.604329 150.320694 
L 416.585899 153.481554 
L 418.56747 148.764959 
" style="fill:none;stroke:#d62728;stroke-linecap:square;stroke-width:1.5;"/>
   </g>
   <g id="patch_6">
    <path d="M 252.115581 174.2 
L 252.115581 24.8 
" style="fill:none;stroke:#000000;stroke-linecap:square;stroke-linejoin:miter;stroke-width:0.8;"/>
   </g>
   <g id="patch_7">
    <path d="M 252.115581 174.2 
L 426.49375 174.2 
" style="fill:none;stroke:#000000;stroke-linecap:square;stroke-linejoin:miter;stroke-width:0.8;"/>
   </g>
   <g id="text_21">
    <!-- max_length = 512 -->
    <defs>
     <path d="M 12.40625 8.296875 
L 28.515625 8.296875 
L 28.515625 63.921875 
L 10.984375 60.40625 
L 10.984375 69.390625 
L 28.421875 72.90625 
L 38.28125 72.90625 
L 38.28125 8.296875 
L 54.390625 8.296875 
L 54.390625 0 
L 12.40625 0 
z
" id="DejaVuSans-49"/>
    </defs>
    <g transform="translate(293.061697 18.8)scale(0.1 -0.1)">
     <use xlink:href="#DejaVuSans-109"/>
     <use x="97.412109" xlink:href="#DejaVuSans-97"/>
     <use x="158.691406" xlink:href="#DejaVuSans-120"/>
     <use x="217.871094" xlink:href="#DejaVuSans-95"/>
     <use x="267.871094" xlink:href="#DejaVuSans-108"/>
     <use x="295.654297" xlink:href="#DejaVuSans-101"/>
     <use x="357.177734" xlink:href="#DejaVuSans-110"/>
     <use x="420.556641" xlink:href="#DejaVuSans-103"/>
     <use x="484.033203" xlink:href="#DejaVuSans-116"/>
     <use x="523.242188" xlink:href="#DejaVuSans-104"/>
     <use x="586.621094" xlink:href="#DejaVuSans-32"/>
     <use x="618.408203" xlink:href="#DejaVuSans-61"/>
     <use x="702.197266" xlink:href="#DejaVuSans-32"/>
     <use x="733.984375" xlink:href="#DejaVuSans-53"/>
     <use x="797.607422" xlink:href="#DejaVuSans-49"/>
     <use x="861.230469" xlink:href="#DejaVuSans-50"/>
    </g>
   </g>
  </g>
  <g id="legend_1">
   <g id="text_22">
    <!-- model -->
    <defs>
     <path d="M 45.40625 46.390625 
L 45.40625 75.984375 
L 54.390625 75.984375 
L 54.390625 0 
L 45.40625 0 
L 45.40625 8.203125 
Q 42.578125 3.328125 38.25 0.953125 
Q 33.9375 -1.421875 27.875 -1.421875 
Q 17.96875 -1.421875 11.734375 6.484375 
Q 5.515625 14.40625 5.515625 27.296875 
Q 5.515625 40.1875 11.734375 48.09375 
Q 17.96875 56 27.875 56 
Q 33.9375 56 38.25 53.625 
Q 42.578125 51.265625 45.40625 46.390625 
z
M 14.796875 27.296875 
Q 14.796875 17.390625 18.875 11.75 
Q 22.953125 6.109375 30.078125 6.109375 
Q 37.203125 6.109375 41.296875 11.75 
Q 45.40625 17.390625 45.40625 27.296875 
Q 45.40625 37.203125 41.296875 42.84375 
Q 37.203125 48.484375 30.078125 48.484375 
Q 22.953125 48.484375 18.875 42.84375 
Q 14.796875 37.203125 14.796875 27.296875 
z
" id="DejaVuSans-100"/>
    </defs>
    <g transform="translate(470.504687 81.403125)scale(0.1 -0.1)">
     <use xlink:href="#DejaVuSans-109"/>
     <use x="97.412109" xlink:href="#DejaVuSans-111"/>
     <use x="158.59375" xlink:href="#DejaVuSans-100"/>
     <use x="222.070312" xlink:href="#DejaVuSans-101"/>
     <use x="283.59375" xlink:href="#DejaVuSans-108"/>
    </g>
   </g>
   <g id="line2d_31">
    <path d="M 430.523438 92.58125 
L 450.523438 92.58125 
" style="fill:none;stroke:#1f77b4;stroke-linecap:square;stroke-width:1.5;"/>
   </g>
   <g id="line2d_32"/>
   <g id="text_23">
    <!-- BlueBERT -->
    <defs>
     <path d="M 19.671875 34.8125 
L 19.671875 8.109375 
L 35.5 8.109375 
Q 43.453125 8.109375 47.28125 11.40625 
Q 51.125 14.703125 51.125 21.484375 
Q 51.125 28.328125 47.28125 31.5625 
Q 43.453125 34.8125 35.5 34.8125 
z
M 19.671875 64.796875 
L 19.671875 42.828125 
L 34.28125 42.828125 
Q 41.5 42.828125 45.03125 45.53125 
Q 48.578125 48.25 48.578125 53.8125 
Q 48.578125 59.328125 45.03125 62.0625 
Q 41.5 64.796875 34.28125 64.796875 
z
M 9.8125 72.90625 
L 35.015625 72.90625 
Q 46.296875 72.90625 52.390625 68.21875 
Q 58.5 63.53125 58.5 54.890625 
Q 58.5 48.1875 55.375 44.234375 
Q 52.25 40.28125 46.1875 39.3125 
Q 53.46875 37.75 57.5 32.78125 
Q 61.53125 27.828125 61.53125 20.40625 
Q 61.53125 10.640625 54.890625 5.3125 
Q 48.25 0 35.984375 0 
L 9.8125 0 
z
" id="DejaVuSans-66"/>
     <path d="M 8.5 21.578125 
L 8.5 54.6875 
L 17.484375 54.6875 
L 17.484375 21.921875 
Q 17.484375 14.15625 20.5 10.265625 
Q 23.53125 6.390625 29.59375 6.390625 
Q 36.859375 6.390625 41.078125 11.03125 
Q 45.3125 15.671875 45.3125 23.6875 
L 45.3125 54.6875 
L 54.296875 54.6875 
L 54.296875 0 
L 45.3125 0 
L 45.3125 8.40625 
Q 42.046875 3.421875 37.71875 1 
Q 33.40625 -1.421875 27.6875 -1.421875 
Q 18.265625 -1.421875 13.375 4.4375 
Q 8.5 10.296875 8.5 21.578125 
z
M 31.109375 56 
z
" id="DejaVuSans-117"/>
     <path d="M 9.8125 72.90625 
L 55.90625 72.90625 
L 55.90625 64.59375 
L 19.671875 64.59375 
L 19.671875 43.015625 
L 54.390625 43.015625 
L 54.390625 34.71875 
L 19.671875 34.71875 
L 19.671875 8.296875 
L 56.78125 8.296875 
L 56.78125 0 
L 9.8125 0 
z
" id="DejaVuSans-69"/>
     <path d="M 44.390625 34.1875 
Q 47.5625 33.109375 50.5625 29.59375 
Q 53.5625 26.078125 56.59375 19.921875 
L 66.609375 0 
L 56 0 
L 46.6875 18.703125 
Q 43.0625 26.03125 39.671875 28.421875 
Q 36.28125 30.8125 30.421875 30.8125 
L 19.671875 30.8125 
L 19.671875 0 
L 9.8125 0 
L 9.8125 72.90625 
L 32.078125 72.90625 
Q 44.578125 72.90625 50.734375 67.671875 
Q 56.890625 62.453125 56.890625 51.90625 
Q 56.890625 45.015625 53.6875 40.46875 
Q 50.484375 35.9375 44.390625 34.1875 
z
M 19.671875 64.796875 
L 19.671875 38.921875 
L 32.078125 38.921875 
Q 39.203125 38.921875 42.84375 42.21875 
Q 46.484375 45.515625 46.484375 51.90625 
Q 46.484375 58.296875 42.84375 61.546875 
Q 39.203125 64.796875 32.078125 64.796875 
z
" id="DejaVuSans-82"/>
    </defs>
    <g transform="translate(458.523438 96.08125)scale(0.1 -0.1)">
     <use xlink:href="#DejaVuSans-66"/>
     <use x="68.603516" xlink:href="#DejaVuSans-108"/>
     <use x="96.386719" xlink:href="#DejaVuSans-117"/>
     <use x="159.765625" xlink:href="#DejaVuSans-101"/>
     <use x="221.289062" xlink:href="#DejaVuSans-66"/>
     <use x="289.892578" xlink:href="#DejaVuSans-69"/>
     <use x="353.076172" xlink:href="#DejaVuSans-82"/>
     <use x="415.308594" xlink:href="#DejaVuSans-84"/>
    </g>
   </g>
   <g id="line2d_33">
    <path d="M 430.523438 107.259375 
L 450.523438 107.259375 
" style="fill:none;stroke:#ff7f0e;stroke-linecap:square;stroke-width:1.5;"/>
   </g>
   <g id="line2d_34"/>
   <g id="text_24">
    <!-- BioBERT -->
    <g transform="translate(458.523438 110.759375)scale(0.1 -0.1)">
     <use xlink:href="#DejaVuSans-66"/>
     <use x="68.603516" xlink:href="#DejaVuSans-105"/>
     <use x="96.386719" xlink:href="#DejaVuSans-111"/>
     <use x="157.568359" xlink:href="#DejaVuSans-66"/>
     <use x="226.171875" xlink:href="#DejaVuSans-69"/>
     <use x="289.355469" xlink:href="#DejaVuSans-82"/>
     <use x="351.587891" xlink:href="#DejaVuSans-84"/>
    </g>
   </g>
   <g id="line2d_35">
    <path d="M 430.523438 121.9375 
L 450.523438 121.9375 
" style="fill:none;stroke:#2ca02c;stroke-linecap:square;stroke-width:1.5;"/>
   </g>
   <g id="line2d_36"/>
   <g id="text_25">
    <!-- SciBERT -->
    <defs>
     <path d="M 48.78125 52.59375 
L 48.78125 44.1875 
Q 44.96875 46.296875 41.140625 47.34375 
Q 37.3125 48.390625 33.40625 48.390625 
Q 24.65625 48.390625 19.8125 42.84375 
Q 14.984375 37.3125 14.984375 27.296875 
Q 14.984375 17.28125 19.8125 11.734375 
Q 24.65625 6.203125 33.40625 6.203125 
Q 37.3125 6.203125 41.140625 7.25 
Q 44.96875 8.296875 48.78125 10.40625 
L 48.78125 2.09375 
Q 45.015625 0.34375 40.984375 -0.53125 
Q 36.96875 -1.421875 32.421875 -1.421875 
Q 20.0625 -1.421875 12.78125 6.34375 
Q 5.515625 14.109375 5.515625 27.296875 
Q 5.515625 40.671875 12.859375 48.328125 
Q 20.21875 56 33.015625 56 
Q 37.15625 56 41.109375 55.140625 
Q 45.0625 54.296875 48.78125 52.59375 
z
" id="DejaVuSans-99"/>
    </defs>
    <g transform="translate(458.523438 125.4375)scale(0.1 -0.1)">
     <use xlink:href="#DejaVuSans-83"/>
     <use x="63.476562" xlink:href="#DejaVuSans-99"/>
     <use x="118.457031" xlink:href="#DejaVuSans-105"/>
     <use x="146.240234" xlink:href="#DejaVuSans-66"/>
     <use x="214.84375" xlink:href="#DejaVuSans-69"/>
     <use x="278.027344" xlink:href="#DejaVuSans-82"/>
     <use x="340.259766" xlink:href="#DejaVuSans-84"/>
    </g>
   </g>
   <g id="line2d_37">
    <path d="M 430.523438 136.615625 
L 450.523438 136.615625 
" style="fill:none;stroke:#d62728;stroke-linecap:square;stroke-width:1.5;"/>
   </g>
   <g id="line2d_38"/>
   <g id="text_26">
    <!-- BioMed-RoBERTa -->
    <defs>
     <path d="M 9.8125 72.90625 
L 24.515625 72.90625 
L 43.109375 23.296875 
L 61.8125 72.90625 
L 76.515625 72.90625 
L 76.515625 0 
L 66.890625 0 
L 66.890625 64.015625 
L 48.09375 14.015625 
L 38.1875 14.015625 
L 19.390625 64.015625 
L 19.390625 0 
L 9.8125 0 
z
" id="DejaVuSans-77"/>
     <path d="M 4.890625 31.390625 
L 31.203125 31.390625 
L 31.203125 23.390625 
L 4.890625 23.390625 
z
" id="DejaVuSans-45"/>
    </defs>
    <g transform="translate(458.523438 140.115625)scale(0.1 -0.1)">
     <use xlink:href="#DejaVuSans-66"/>
     <use x="68.603516" xlink:href="#DejaVuSans-105"/>
     <use x="96.386719" xlink:href="#DejaVuSans-111"/>
     <use x="157.568359" xlink:href="#DejaVuSans-77"/>
     <use x="243.847656" xlink:href="#DejaVuSans-101"/>
     <use x="305.371094" xlink:href="#DejaVuSans-100"/>
     <use x="368.847656" xlink:href="#DejaVuSans-45"/>
     <use x="404.931641" xlink:href="#DejaVuSans-82"/>
     <use x="469.914062" xlink:href="#DejaVuSans-111"/>
     <use x="531.095703" xlink:href="#DejaVuSans-66"/>
     <use x="599.699219" xlink:href="#DejaVuSans-69"/>
     <use x="662.882812" xlink:href="#DejaVuSans-82"/>
     <use x="725.115234" xlink:href="#DejaVuSans-84"/>
     <use x="769.699219" xlink:href="#DejaVuSans-97"/>
    </g>
   </g>
  </g>
 </g>
 <defs>
  <clipPath id="p03a7ab13c7">
   <rect height="149.4" width="174.378169" x="60.766312" y="24.8"/>
  </clipPath>
  <clipPath id="p855c8667a8">
   <rect height="149.4" width="174.378169" x="252.115581" y="24.8"/>
  </clipPath>
 </defs>
</svg>
